<?xml version="1.0" standalone="no"?>
<!DOCTYPE svg PUBLIC "-//W3C//DTD SVG 1.1//EN" "http://www.w3.org/Graphics/SVG/1.1/DTD/svg11.dtd" >
<svg xmlns="http://www.w3.org/2000/svg">
<metadata>Generated by IcoMoon</metadata>
<defs>
<font id="icons" horiz-adv-x="1024">
<font-face units-per-em="1024" ascent="960" descent="-64" />
<missing-glyph horiz-adv-x="1024" />
<glyph unicode="&#x20;" horiz-adv-x="512" d="" />
<glyph unicode="&#xe900;" glyph-name="air-filter1" d="M546.922 591.978c36.96-37.018 59.86-88.081 59.86-144.401 0-112.678-91.679-204.373-204.384-204.373-112.695 0-204.374 91.696-204.374 204.373 0 110.063 87.414 200.079 196.476 204.244 2.618 0.101 5.26 0.156 7.898 0.156h333.602v198.023h-333.602c-221.875 0-402.398-180.523-402.398-402.423 0-221.873 180.523-402.398 402.398-402.398 221.897 0 402.398 180.524 402.398 402.398 0 50.862-9.475 99.564-26.771 144.401h-231.103zM796 850h61.344v-198.023h-61.344v198.023zM917.333 850h106.656v-198.023h-106.656v198.023zM372.401 306.34c9.677-2.062 19.719-3.14 30-3.14s20.32 1.079 30 3.14v64.86h-60v-64.86zM478.768 417.584h64.857c2.065 9.68 3.144 19.719 3.144 30s-1.079 20.32-3.144 30h-64.857v-60zM261.166 417.584h64.867v60h-64.867c-2.054-9.68-3.133-19.719-3.133-30s1.078-20.32 3.133-30zM433.497 447.59c0-17.179-13.923-31.102-31.095-31.102-17.179 0-31.102 13.923-31.102 31.102 0 17.172 13.923 31.092 31.102 31.092 17.172 0 31.095-13.92 31.095-31.092zM432.401 588.851c-9.68 2.055-19.719 3.133-30 3.133s-20.323-1.079-30-3.133v-64.884h60v64.884z" />
<glyph unicode="&#xe901;" glyph-name="battery1" d="M36 166.672h948.001v421.001h-948.001v-421.001zM605.259 407.174h211.594v-60.002h-211.594v60.002zM282.953 482.962h60v-75.788h75.788v-60.002h-75.788v-75.796h-60v75.796h-75.797v60.002h75.797v75.788zM1024 647.672v129.367h-51.365v138.961h-206.844v-138.961h-95.992l0.764 109.883-315.992 2.203-0.781-112.086h-95.578v138.961h-206.844v-138.961h-51.367v-129.367h1024zM0 106.673h1024v-128h-1024v128z" />
<glyph unicode="&#xe902;" glyph-name="car-door1" d="M389.328 624.482l-132.65-133.719h132.65v133.719zM447.572 683.204h1.755v-192.438h424.667v240.555h-378.69l-47.733-48.117zM325 93.071c7.086-22.828 11.602-46.804 13.18-71.607l1.789-28.094h684.024v99.701h-698.993zM1024 153.070v750.93h-602.225l-421.775-425.181v-168.419h30c114.68 0 215.828-63.206 269.070-157.33h724.93zM875.337 306.015h-132.001v59.999h132.001v-59.999zM470.32 791.32h463.682v-360.556h-821.353l357.671 360.556z" />
<glyph unicode="&#xe903;" glyph-name="car-seat1" d="M902.55 934.046c-15.612 16.735-37.142 25.954-60.628 25.954h-64.549c-47.568 0-92.968-38.115-101.193-84.969l-4.070-23.171c-4.089-23.316 1.415-45.4 15.514-62.185 14.095-16.786 34.893-26.027 58.565-26.027h83.379c11.568 0 22.758 2.31 33.152 6.411l-8.861-75.706c-8.528 3.585-17.894 5.494-27.736 5.494h-95.13c-40.755 0-80.783-32.433-89.238-72.296l-84.111-396.526-396.833 28.515c-21.444 1.536-39.347-5.734-50.447-20.005-10.396-13.367-13.435-31.298-8.563-50.498l46.137-181.658c9.995-39.355 51.167-71.38 91.771-71.38h507.103c41.147 0 78.157 33.295 82.498 74.214l65.097 613.718c0.369 3.508 0.413 6.965 0.293 10.388l22.283 190.311c3.145 8.197 5.142 16.91 5.771 25.946l1.474 21.185c1.635 23.427-6.067 45.545-21.68 62.283z" />
<glyph unicode="&#xe904;" glyph-name="disc-brake1" d="M493.48 482.929c-29.469 0-53.445-23.976-53.445-53.445 0-29.477 23.976-53.453 53.445-53.453 29.477 0 53.456 23.976 53.456 53.453 0 29.469-23.98 53.445-53.456 53.445zM493.462 604.25c-96.377 0-174.783-78.408-174.783-174.781 0-96.384 78.407-174.789 174.783-174.789 96.38 0 174.786 78.405 174.786 174.789 0 96.373-78.405 174.781-174.786 174.781zM493.462 315.999c-62.563 0-113.47 50.9-113.47 113.47 0 62.563 50.907 113.467 113.47 113.467 62.57 0 113.467-50.904 113.467-113.467 0-62.57-50.896-113.47-113.467-113.47zM878.607 451.094h147.31c-10.748 274.078-229.53 495.672-502.451 510.906v-147.477c191.759-14.828 344.671-170.493 355.141-363.429zM818.322 391.080l0.75 30.742c0.069 2.703 0.102 5.413 0.102 8.133 0 179.593-146.103 325.703-325.698 325.703h-30.014v164.36c-119.985-7.18-231.798-57.297-317.517-143.016-92.82-92.829-143.946-216.252-143.946-347.525 0-131.28 51.125-254.694 143.946-347.524 92.828-92.826 216.251-143.952 347.531-143.952 131.273 0 254.698 51.127 347.524 143.952 83.712 83.712 133.445 192.322 142.416 309.127h-165.094zM306.868 743.463c15.594 9.070 35.578 3.773 44.641-11.813 9.062-15.594 3.766-35.578-11.82-44.641s-35.57-3.766-44.633 11.82c-9.063 15.594-3.773 35.578 11.813 44.633zM174.797 607.963c8.969 15.648 28.914 21.063 44.563 12.101s21.063-28.913 12.101-44.554c-8.961-15.649-28.914-21.072-44.563-12.109-15.641 8.967-21.063 28.913-12.101 44.562zM128.25 424.558c-0.063 18.037 14.492 32.709 32.531 32.772 18.023 0.069 32.703-14.493 32.773-32.523 0.063-18.033-14.5-32.702-32.531-32.775-18.031-0.062-32.703 14.501-32.773 32.527zM224.368 230.711c-15.578-9.077-35.57-3.811-44.649 11.765-9.078 15.579-3.812 35.573 11.766 44.65 15.57 9.077 35.562 3.814 44.649-11.765 9.078-15.572 3.813-35.562-11.766-44.65zM359.931 122.734c-8.938-15.656-28.883-21.102-44.539-12.156-15.656 8.938-21.102 28.884-12.156 44.54 8.938 15.656 28.883 21.102 44.539 12.156 15.656-8.938 21.1-28.884 12.156-44.54zM497.002 64.234c-18.033 0-32.651 14.618-32.651 32.658 0 18.030 14.618 32.647 32.651 32.647 18.030 0 32.647-14.618 32.647-32.647 0-18.041-14.618-32.658-32.647-32.658zM679.274 115.010c-15.609-9.026-35.577-3.683-44.603 11.937-9.022 15.609-3.679 35.577 11.941 44.603 15.609 9.022 35.577 3.679 44.599-11.93 9.019-15.62 3.683-35.588-11.937-44.61zM493.469 194.666c-129.469 0-234.805 105.337-234.805 234.811 0 129.47 105.336 234.806 234.805 234.806 129.477 0 234.814-105.336 234.814-234.806 0-129.474-105.337-234.811-234.814-234.811zM811.688 250.181c-9-15.627-28.961-20.992-44.584-11.992-15.627 9.008-20.992 28.968-11.984 44.592 9 15.627 28.961 20.992 44.584 11.984 15.627-9 20.992-28.961 11.984-44.584z" />
<glyph unicode="&#xe905;" glyph-name="file1" d="M166.514 58.96h-70.672c-20.706 0-40.494 5.35-57.842 15.342v-8.298c0-71.793 58.204-130 130-130h14.038c-9.858 17.273-15.524 37.226-15.524 58.489v64.468zM510.936 144.541c0 34.9 6.656 68.751 19.335 100.125h-105.622v60.003h139.597c7.497 9.947 15.729 19.452 24.689 28.412 11.802 11.805 24.536 22.345 38.012 31.594h-132.206v59.999h133.906v-58.832c43.597 29.422 94.976 45.239 148.827 45.239 10.101 0 20.107-0.574 30-1.671v550.59h-768.179l-0.004-781.583c-0.232-16.505 5.74-31.781 16.822-43.023 10.454-10.602 24.554-16.443 39.708-16.443h130.672v-124.464c0-32.201 26.22-58.408 58.478-58.489h326.334c-7.764 6.21-15.243 12.869-22.374 20.001-50.297 50.297-77.996 117.255-77.996 188.54zM628.648 484.685h-295.082v59.999h295.082v-59.999zM628.648 604.042h-204.003v60h204.003v-60zM206.618 784.048h422.034v-60h-422.034v60zM206.618 664.042h148.086v-60h-148.086v60zM267.944 544.684v-59.999h-60.002v59.999h60.002zM354.704 244.667h-148.086v60.003h148.086v-60.003zM423.537 364.676h-215.595v59.999h215.595v-59.999zM925.001 292.059c-81.349 81.349-213.712 81.349-295.062 0-81.346-81.346-81.346-213.712 0-295.058 81.349-81.349 213.712-81.349 295.062 0 81.346 81.346 81.346 213.712 0 295.058zM744.082 41.666l-82.348 82.348 42.427 42.427 39.921-39.921 111.437 111.437 42.427-42.427-153.863-153.863z" />
<glyph unicode="&#xe906;" glyph-name="folder1" d="M0-64.012h1024v585.314h-1024v-585.314zM894.665 399.225v-192.422h-311.669v192.422h311.669zM642.998 339.239h191.668v-72.417h-191.668v72.417zM238.6 682.48h602.083v-101.174h-602.083v101.174zM178.574 742.488h722.083v-161.174h123.335v278.68h-617.269l-75.302 100.006h-272.38v-378.686h119.534v161.174z" />
<glyph unicode="&#xe907;" glyph-name="motor1" d="M385.156 596.219h204.354v37.781h85.153v176h-374.663v-176h85.156v-37.781zM765.338 536.214h-320.194v-448.64h407.139v352.274l-31.952 39.607h-54.992v56.759zM385.152 536.214h-98.759v-365.499h1.656l75.313-83.141h21.79v448.64zM963.99 398.661v-50.538h-51.705v-211.924h51.705v-48.201h59.999v310.663h-59.999zM226.398 170.708v302.899h-110.773v-121.446h-55.625v68.25h-60v-196.498h60v68.25h55.625v-121.454h110.773z" />
<glyph unicode="&#xe908;" glyph-name="price-tag1" d="M697.86 900.125h-154.821v-125.1c34.922-12.36 60.003-45.74 60.003-84.84 0-49.64-40.382-90-90.002-90s-89.999 40.36-89.999 90c0 39.1 25.081 72.48 59.999 84.84v125.1h-156.939l-133.6-208.18v-755.941h638.981v755.941l-133.621 208.18zM511.982 332.123c61.019 0 110.68-45.118 110.68-100.579 0-46.021-34.183-84.879-80.68-96.801v-36.919h-60.003v36.919c-46.479 11.922-80.658 50.779-80.658 96.801h59.999c0-22.378 22.722-40.58 50.662-40.58 27.937 0 50.677 18.202 50.677 40.58 0 22.382-22.74 40.58-50.677 40.58-61.023 0-110.661 45.122-110.661 100.601 0 46 34.18 84.879 80.658 96.801v36.919h60.003v-36.919c46.497-11.922 80.68-50.801 80.68-96.801h-60.003c0 22.36-22.74 40.58-50.677 40.58-27.941 0-50.662-18.22-50.662-40.58 0-22.382 22.722-40.602 50.662-40.602zM483.072 960h59.999v-59.88h-59.999v59.88zM513.072 660.179c16.567 0 30 13.431 30 30s-13.433 30-30 30c-16.567 0-30-13.431-30-30s13.433-30 30-30z" />
<glyph unicode="&#xe909;" glyph-name="shock-absorber1" d="M712.372 281.557l34.512 19.431 67.752-120.258-51.548-29.038c12.266-7.804 22.5-18.55 29.823-31.583 11.745-20.824 14.653-44.985 8.217-68.015-6.436-23.037-21.439-42.179-42.282-53.918s-44.988-14.649-68.028-8.214c-23.031 6.436-42.183 21.442-53.906 42.279-7.348 13.020-11.233 27.341-11.549 41.875l-51.551-29.032-67.73 120.27 34.506 19.447-16.465 29.231 146.323 141.961 41.925-74.435zM646.389 398.662l-146.32-141.964-23.775 42.211 146.32 141.961 23.775-42.207zM598.602 483.555l-146.33-141.961-23.766 42.207 146.32 141.961 23.775-42.207zM550.788 568.419l-146.326-141.957-23.763 42.186 146.323 141.961 23.766-42.189zM502.97 653.315l-146.32-141.96-23.763 42.186 146.32 141.96 23.763-42.185zM224.86 805.778c-6.793 5.605-12.69 12.499-17.276 20.631-9.982 17.731-11.814 37.87-6.728 56.075s17.091 34.479 34.821 44.48c17.185 9.675 37.106 12.078 56.101 6.772 18.999-5.308 34.772-17.685 44.456-34.865 4.577-8.137 7.416-16.753 8.688-25.468l60.382 34.010 67.733-120.273-34.521-19.428 16.642-29.536-146.328-141.966-42.095 74.745-34.507-19.451-67.749 120.264 60.381 34.010zM673.891 425.345l32.991-33.991-36.445-35.353-24.033 42.67 27.487 26.674zM496.649 187.37l-32.988 34.006 36.442 35.334 24.033-42.67-27.487-26.671zM626.080 510.222l32.979-34.006-36.433-35.337-24.033 42.67 27.487 26.674zM448.801 272.232l-32.988 34.006 36.436 35.34 24.039-42.673-27.487-26.674zM578.262 595.099l32.979-34.009-36.436-35.337-24.033 42.676 27.49 26.671zM401.005 357.122l-32.985 33.994 36.439 35.356 24.039-42.679-27.493-26.671zM530.457 679.984l32.998-34.010-36.445-35.353-24.048 42.693 27.496 26.671zM353.19 441.986l-32.998 34.012 36.436 35.356 24.048-42.695-27.487-26.674zM482.655 764.842l32.985-33.987-36.439-35.356-24.033 42.677 27.487 26.666zM305.406 526.87l-32.987 34.006 36.434 35.337 24.039-42.673-27.487-26.671z" />
<glyph unicode="&#xe90a;" glyph-name="steering-wheel1" d="M874.039 85.961c96.705 96.705 149.961 225.28 149.961 362.039s-53.256 265.336-149.961 362.039-225.28 149.961-362.039 149.961c-136.758 0-265.336-53.258-362.039-149.961s-149.961-225.281-149.961-362.039c0-136.759 53.258-265.334 149.961-362.039s225.281-149.961 362.039-149.961c136.759 0 265.334 53.256 362.039 149.961zM512 788.695c119.812 0 225.166-61.852 285.897-155.359h-571.795c60.734 93.508 166.086 155.359 285.898 155.359zM614.664 465.766c0-56.611-46.056-102.664-102.664-102.664s-102.664 46.052-102.664 102.664c0 56.608 46.056 102.671 102.664 102.671s102.664-46.063 102.664-102.671zM403.476 124.96c-129.218 43.398-223.827 162.15-231.632 304.033 84.398-12.205 154.367-62.133 195.141-130.32h288.352v-2.867c40.507 69.656 111.25 120.812 196.821 133.187-7.798-141.883-102.416-260.636-231.633-304.033-4.955 39.4-1.182 77.954 9.795 113.703h-236.64c10.986-35.749 14.751-74.303 9.796-113.703zM469.346 465.77c0-23.524 19.141-42.665 42.665-42.665 23.52 0 42.661 19.141 42.661 42.665 0 23.532-19.141 42.673-42.661 42.673-23.524 0-42.665-19.141-42.665-42.673z" />
<glyph unicode="&#xe90b;" glyph-name="tire1" d="M512.004 486.93c-21.431 0-38.861-17.43-38.861-38.861s17.43-38.868 38.861-38.868c21.427 0 38.864 17.437 38.864 38.868s-17.437 38.861-38.864 38.861zM331.368 533.431l14.18 24.492-58.235 94.327c-30.32-33.336-53.32-73.438-66.492-117.718l110.547-1.101zM676.144 561.979l14.139-24.514 110.961 3.39c-14.124 43.922-37.983 83.524-69.054 116.235l-56.046-95.111zM606.57 562.3l79.345 134.656c-16.143 11.313-33.423 21.094-51.643 29.133l-74.672-139.023h-99.288l-77.008 136.101c-17.883-8.399-34.813-18.492-50.594-30.062l82.843-134.195-49.748-85.921-156.391 1.547c-0.758-8.73-1.164-17.547-1.164-26.47 0-11.092 0.617-22.038 1.781-32.827l157.757 4.685 49.565-86.031-79.455-134.594c16.133-11.319 33.415-21.116 51.624-29.173l74.774 138.971 99.291-0.080 76.906-136.148c18.022 8.448 35.083 18.619 50.977 30.288l-82.94 134.133 49.682 85.961 156.398-1.437c0.742 8.656 1.148 17.408 1.148 26.251 0 11.165-0.625 22.188-1.807 33.046l-157.765-4.805-49.616 85.994zM512 349.096c-54.572 0-98.962 44.398-98.962 98.97s44.39 98.962 98.962 98.962c54.572 0 98.97-44.39 98.97-98.962s-44.398-98.97-98.97-98.97zM495.375 647.181h28.303l52.524 97.797c-20.696 4.469-42.171 6.844-64.187 6.844-24.47 0-48.274-2.93-71.088-8.414l54.448-96.227zM347.765 334.252l-14.125 24.517-110.961-3.299c14.094-43.944 37.93-83.562 68.969-116.29l56.117 95.071zM692.736 362.821l-14.164-24.499 58.306-94.281c30.296 33.349 53.263 73.468 66.406 117.764l-110.548 1.017zM1024 477.634c-6.546 115.781-51.423 224.335-128.523 310.929l-61.392-61.391-42.492 42.5 61.414 61.414c-86.561 77.258-195.131 122.265-310.96 128.914v-86.969h-60.101v86.969c-115.822-6.648-224.391-51.656-310.953-128.914l61.414-61.414-42.492-42.5-61.391 61.391c-77.101-86.594-121.976-195.147-128.523-310.929h86.547v-60.101h-86.492c6.742-115.657 51.726-224.062 128.883-310.51l60.977 60.968 42.492-42.5-60.938-60.943c86.484-77.001 194.867-121.86 310.484-128.494v86.078h60.101v-86.078c115.61 6.634 223.993 51.493 310.484 128.494l-60.946 60.943 42.503 42.5 60.968-60.968c77.155 86.448 122.149 194.853 128.881 310.51h-86.491v60.101h86.546zM512 84.202c-200.633 0-363.852 163.229-363.852 363.86 0 200.633 163.219 363.852 363.852 363.852 200.635 0 363.86-163.219 363.86-363.852 0-200.631-163.226-363.86-363.86-363.86zM528.505 248.949l-28.303 0.015-52.593-97.755c20.765-4.502 42.309-6.894 64.406-6.894 24.389 0 48.117 2.907 70.864 8.368l-54.374 96.267z" />
<glyph unicode="&#xe90c;" glyph-name="Vector" d="M742.4 605.338h51.2c42.346 0 76.8 34.983 76.8 77.998v198.664c0 43.008-34.454 78-76.8 78h-51.2c-42.346 0-76.8-34.992-76.8-78v-69.336h-52.183v61h-202.832v-61h-52.185v69.336c0 43.008-34.454 78-76.8 78h-51.2c-42.346 0-76.8-34.992-76.8-78v-198.664c0-43.016 34.454-77.998 76.8-77.998h51.2c42.346 0 76.8 34.983 76.8 77.998v69.328h52.185v-61h71.877v-90.665h-80.739v-305.999h80.739v-86.999h-71.877v-64.666h-52.185v69.328c0 43.015-34.454 77.998-76.8 77.998h-51.2c-42.346 0-76.8-34.983-76.8-77.998v-198.663c0-43.008 34.454-78.001 76.8-78.001h51.2c42.346 0 76.8 34.993 76.8 78.001v69.335h52.185v-57.337h202.832v57.337h52.183v-69.335c0-43.008 34.454-78.001 76.8-78.001h51.2c42.346 0 76.8 34.993 76.8 78.001v198.663c0 43.015-34.454 77.998-76.8 77.998h-51.2c-42.346 0-76.8-34.983-76.8-77.998v-69.328h-52.183v64.666h-71.878v86.999h80.739v305.999h-80.739v90.665h71.878v61h52.183v-69.328c0-43.016 34.454-77.998 76.8-77.998z" />
<glyph unicode="&#xe90d;" glyph-name="instagram" d="M512.483 346.109c56.432 0 102.438 45.923 102.438 102.4 0 22.291-7.293 42.874-19.366 59.686-18.605 25.795-48.851 42.71-83.011 42.71-34.179 0-64.406-16.893-83.053-42.688-12.115-16.813-19.344-37.395-19.366-59.69-0.061-56.474 45.904-102.419 102.358-102.419zM736.096 573.766v98.609l-98.627-0.309 0.33-98.629 98.298 0.33zM512.499 960c-282.039 0-511.499-229.46-511.499-511.501 0-282.019 229.46-511.501 511.499-511.501 282.019 0 511.501 229.482 511.501 511.501 0 282.041-229.44 511.501-511.501 511.501zM803.398 508.189v-238.176c0-62.038-50.435-112.454-112.432-112.454h-356.934c-62.015 0-112.431 50.416-112.431 112.454v356.934c0 62.015 50.417 112.432 112.431 112.432h356.915c62.016 0 112.451-50.417 112.451-112.432v-118.758zM671.61 448.499c0-87.709-71.37-159.12-159.12-159.12s-159.098 71.411-159.098 159.12c0 21.098 4.202 41.27 11.702 59.69h-86.844v-238.176c0-30.781 24.992-55.712 55.753-55.712h356.912c30.72 0 55.754 24.931 55.754 55.712v238.176h-86.886c7.562-18.419 11.827-38.592 11.827-59.69z" />
<glyph unicode="&#xe90e;" glyph-name="facebook" d="M511.501 960c-282.041 0-511.501-229.46-511.501-511.501 0-282.019 229.46-511.501 511.501-511.501 282.019 0 511.501 229.482 511.501 511.501 0 282.041-229.44 511.501-511.501 511.501zM638.704 430.493h-83.216c0-132.954 0-296.608 0-296.608h-123.312c0 0 0 162.067 0 296.608h-58.614v104.829h58.614v67.808c0 48.561 23.075 124.444 124.445 124.444l91.376-0.35v-101.76c0 0-55.526 0-66.32 0-10.797 0-26.147-5.398-26.147-28.557v-61.603h93.952l-10.778-104.81z" />
<glyph unicode="&#xe90f;" glyph-name="geo-map" horiz-adv-x="717" d="M349.691 928.5c-183.996 0-333.691-149.695-333.691-333.691 0-231.263 334.020-626.307 334.020-626.307s333.362 406.415 333.362 626.307c0 183.996-149.688 333.691-333.69 333.691zM450.373 497.103c-27.762-27.756-64.219-41.636-100.682-41.636-36.457 0-72.926 13.881-100.676 41.636-55.518 55.512-55.518 145.84 0 201.358 26.883 26.894 62.642 41.707 100.676 41.707s73.787-14.818 100.682-41.707c55.518-55.518 55.518-145.846 0-201.358z" />
<glyph unicode="&#xe910;" glyph-name="e-mail" horiz-adv-x="1408" d="M704.032 246.906l-174.19 152.469-498.029-426.927c18.103-16.794 42.541-27.251 69.495-27.251h1205.451c26.848 0 51.187 10.458 69.19 27.251l-497.728 426.927-174.189-152.469zM1376.237 923.62c-18.099 16.896-42.438 27.255-69.491 27.255h-1205.452c-26.852 0-51.191-10.459-69.293-27.456l672.019-575.973 672.218 576.174zM0 862.563v-835.548l486.061 413.048-486.061 422.5zM921.939 440.073l486.061-413.046v835.848l-486.061-422.802z" />
<glyph unicode="&#xe911;" glyph-name="phone" horiz-adv-x="931" d="M837.679 266.775c-57.153 5.571-112.263 19.954-163.612 42.631-25.023 11.45-55.096 7.438-73.807-8.262l-112.929-69.185c-114.412 76.181-184.13 160.908-235.99 286.913l87.301 95.163c21.353 17.56 31.104 45.359 25.365 72.845-12.449 55.117-15.959 112.022-10.397 169.076 3.931 40.329-25.687 76.345-66.016 80.276l-170.675 16.637c-40.329 3.931-76.345-25.687-80.276-66.016-45.866-470.523 299.663-890.689 770.186-936.555 40.332-3.933 76.349 25.688 80.277 66.015l16.589 170.184c3.933 40.332-25.688 76.349-66.015 80.277z" />
<glyph unicode="&#xe912;" glyph-name="yes" d="M738.33 610.461c15.621-15.625 15.621-40.953 0-56.57l-268.345-268.354c-15.625-15.616-40.945-15.616-56.57 0l-127.742 127.754c-15.625 15.616-15.625 40.943 0 56.56 15.617 15.625 40.945 15.625 56.563 0l99.461-99.461 240.063 240.070c15.626 15.617 40.95 15.617 56.571 0zM1024 448c0-283.008-229.033-512-512-512-283.008 0-512 229.033-512 512 0 283.008 229.031 512 512 512 283.008 0 512-229.031 512-512zM944 448c0 238.789-193.244 432-432 432-238.789 0-432-193.242-432-432 0-238.787 193.242-432 432-432 238.787 0 432 193.244 432 432z" />
<glyph unicode="&#xe913;" glyph-name="airbag1" d="M874.039 810.040c-96.705 96.702-225.28 149.96-362.039 149.96s-265.334-53.258-362.040-149.96c-96.702-96.706-149.96-225.28-149.96-362.040s53.258-265.334 149.96-362.039c96.706-96.701 225.28-149.961 362.040-149.961s265.334 53.26 362.039 149.961c96.701 96.705 149.961 225.28 149.961 362.039s-53.26 265.334-149.961 362.040zM512 798c166.187 0 305.684-116.43 341.228-271.999h-116.122c-145.396 51.535-304.817 51.535-450.215 0h-116.12c35.544 155.569 175.042 271.999 341.228 271.999zM170 465.999h92v-39.999h-92v39.999zM432.002 107.236c-128.198 30.090-229.45 130.851-260.276 258.765h108.194l26.666-160h125.416v-98.765zM457.192 349.33c-2.194-4.061-5.088-7.302-8.68-9.728-3.596-2.43-7.652-4.179-12.182-5.25-4.525-1.075-9.078-1.611-13.647-1.611-3.643 0-7.377 0.28-11.201 0.839-3.828 0.559-7.629 1.351-11.41 2.379s-7.421 2.241-10.921 3.643c-3.5 1.398-6.744 2.985-9.73 4.758l11.76 23.942c3.267-2.056 6.673-3.875 10.218-5.463 2.989-1.398 6.372-2.658 10.153-3.777 3.777-1.122 7.629-1.682 11.548-1.682 2.985 0 5.065 0.398 6.231 1.189s1.749 1.843 1.749 3.151c0 1.398-0.583 2.592-1.749 3.568-1.166 0.981-2.777 1.843-4.829 2.592-2.056 0.744-4.411 1.493-7.070 2.241-2.662 0.744-5.486 1.631-8.472 2.658-4.387 1.493-8.168 3.104-11.339 4.832-3.174 1.725-5.789 3.682-7.841 5.88-2.054 2.19-3.57 4.687-4.55 7.487s-1.47 6.022-1.47 9.661c0 5.506 1.002 10.358 3.010 14.56 2.006 4.198 4.736 7.7 8.189 10.5s7.396 4.923 11.831 6.368c4.431 1.445 9.121 2.17 14.068 2.17 3.643 0 7.188-0.351 10.642-1.048 3.454-0.701 6.79-1.591 10.012-2.662 3.218-1.071 6.227-2.237 9.027-3.497s5.321-2.45 7.562-3.572l-11.76-22.54c-2.8 1.682-5.695 3.17-8.68 4.482-2.521 1.119-5.344 2.17-8.468 3.147-3.131 0.981-6.187 1.473-9.173 1.473-2.426 0-4.364-0.374-5.809-1.122-1.449-0.748-2.17-2.009-2.17-3.777 0-1.312 0.421-2.383 1.26-3.222s2.052-1.611 3.639-2.312c1.587-0.697 3.521-1.375 5.809-2.028s4.876-1.449 7.771-2.379c4.573-1.402 8.704-2.942 12.39-4.62 3.686-1.682 6.837-3.667 9.452-5.951 2.611-2.288 4.62-5.065 6.018-8.33 1.402-3.269 2.099-7.235 2.099-11.902 0-5.971-1.099-10.988-3.289-15.049zM532 98.584c-6.621-0.374-13.284-0.583-20-0.583s-13.379 0.209-20 0.583v107.418h39.999v-107.418zM528.943 334.001l-18.901 30.519h-10.22v-30.519h-27.301v99.399h45.639c4.852 0 9.334-1.004 13.442-3.009 4.108-2.009 7.629-4.62 10.571-7.841 2.942-3.218 5.25-6.908 6.928-11.059 1.682-4.155 2.521-8.33 2.521-12.532 0-5.786-1.256-11.177-3.781-16.167-2.521-4.994-6.022-9.078-10.5-12.253l22.402-36.537h-30.799zM571.569 339.602c-3.497 1.398-6.743 2.985-9.728 4.758l11.76 23.942c3.265-2.056 6.672-3.875 10.22-5.463 2.981-1.398 6.368-2.658 10.145-3.777 3.781-1.122 7.629-1.682 11.552-1.682 2.985 0 5.061 0.398 6.231 1.189 1.166 0.792 1.749 1.843 1.749 3.151 0 1.398-0.583 2.592-1.749 3.568-1.17 0.981-2.781 1.843-4.832 2.592-2.052 0.744-4.407 1.493-7.070 2.241-2.658 0.744-5.482 1.631-8.468 2.658-4.387 1.493-8.168 3.104-11.343 4.832-3.174 1.725-5.786 3.682-7.838 5.88-2.056 2.19-3.572 4.687-4.549 7.487-0.981 2.8-1.469 6.022-1.469 9.661 0 5.506 1 10.358 3.009 14.56 2.005 4.198 4.734 7.7 8.188 10.5s7.396 4.923 11.831 6.368c4.431 1.445 9.125 2.17 14.072 2.17 3.639 0 7.184-0.351 10.638-1.048 3.454-0.701 6.79-1.591 10.012-2.662 3.218-1.071 6.231-2.237 9.031-3.497 2.796-1.26 5.317-2.45 7.558-3.572l-11.76-22.54c-2.8 1.682-5.695 3.17-8.68 4.482-2.521 1.119-5.344 2.17-8.468 3.147-3.131 0.981-6.187 1.473-9.173 1.473-2.426 0-4.364-0.374-5.809-1.122-1.449-0.748-2.17-2.009-2.17-3.777 0-1.312 0.421-2.383 1.26-3.222s2.052-1.611 3.639-2.312c1.587-0.697 3.525-1.375 5.809-2.028 2.288-0.654 4.876-1.449 7.771-2.379 4.573-1.402 8.704-2.942 12.39-4.62 3.686-1.682 6.837-3.667 9.452-5.951 2.611-2.288 4.62-5.065 6.018-8.33 1.402-3.269 2.103-7.235 2.103-11.902 0-5.971-1.099-10.988-3.293-15.049s-5.088-7.302-8.68-9.728c-3.592-2.43-7.652-4.179-12.182-5.25-4.529-1.075-9.074-1.611-13.647-1.611-3.643 0-7.377 0.28-11.201 0.839-3.828 0.559-7.629 1.351-11.41 2.379s-7.42 2.241-10.921 3.643zM591.998 107.236v98.765h125.416l26.667 160h108.193c-30.826-127.913-132.080-228.675-260.277-258.765zM854 426h-91.999v39.999h91.999v-39.999zM521.37 406.867c-1.682 1.82-3.363 2.729-5.045 2.729h-16.518v-21.28h17.223c1.682 0 3.241 0.933 4.687 2.8 1.449 1.867 2.174 4.478 2.174 7.838 0 3.454-0.839 6.093-2.521 7.912z" />
</font>
</defs>
</svg>
